<svg width="1680" height="880" viewBox="0 0 1680 880" fill="none" xmlns="http://www.w3.org/2000/svg">
<mask id="mask0" mask-type="alpha" maskUnits="userSpaceOnUse" x="0" y="0" width="1680" height="880">
<rect width="1680" height="880" fill="#C4C4C4"/>
</mask>
<g mask="url(#mask0)">
<path d="M120.875 -192H-119V-104.25M120.875 -192V-104.25M120.875 -192H280.792M120.875 -192V-16.5M120.875 -104.25H-119M120.875 -104.25H40.9166M120.875 -104.25V-60.375M-119 -104.25H40.9166M-119 -104.25V-60.375M40.9166 -104.25V-60.375M40.9166 -60.375H-119M40.9166 -60.375H120.875M-119 -60.375H120.875M-119 -60.375V-16.5M120.875 -60.375V-16.5M120.875 -16.5H-119M120.875 -16.5H280.792M120.875 -16.5H40.9166M120.875 -16.5V71.25M120.875 -16.5V27.375M-119 -16.5H40.9166M-119 -16.5V71.25M1560.12 1212H1800V1124.25M1560.12 1212V1124.25M1560.12 1212H1400.21M1560.12 1212V1036.5M1560.12 1124.25H1800M1560.12 1124.25H1640.08M1560.12 1124.25V1080.38M1800 1124.25H1640.08M1800 1124.25V1080.38M1640.08 1124.25V1080.38M1640.08 1080.38H1800M1640.08 1080.38H1560.12M1800 1080.38H1560.12M1800 1080.38V1036.5M1560.12 1080.38V1036.5M1560.12 1036.5H1800M1560.12 1036.5H1400.21M1560.12 1036.5H1640.08M1560.12 1036.5V948.75M1560.12 1036.5V992.625M1800 1036.5H1640.08M1800 1036.5V948.75M840.5 1212H600.625M840.5 1212V1124.25M840.5 1212H920.458M840.5 1212L840.5 1168.12M600.625 1212V1124.25M600.625 1212H440.708M600.625 1212V1036.5M600.625 1124.25H840.5M600.625 1124.25H680.583M600.625 1124.25V1080.38M840.5 1124.25H680.583M840.5 1124.25V1080.38M680.583 1124.25V1080.38M680.583 1080.38H840.5M680.583 1080.38H600.625M840.5 1080.38H600.625M840.5 1080.38V1036.5M600.625 1080.38V1036.5M600.625 1036.5H840.5M600.625 1036.5H440.708M600.625 1036.5H680.583M600.625 1036.5V948.75M600.625 1036.5V992.625M840.5 1036.5L840.5 1168.12M840.5 1036.5H920.458M840.5 1036.5H680.583M840.5 1036.5V948.75M840.5 1036.5H1000.42M840.5 1036.5V992.625M840.5 -192H1080.37M840.5 -192V-104.25M840.5 -192H760.542M840.5 -192V-148.125M1080.37 -192V-104.25M1080.37 -192H1240.29M1080.37 -192V-16.5M1080.37 -104.25H840.5M1080.37 -104.25H1000.42M1080.37 -104.25V-60.375M840.5 -104.25H1000.42M840.5 -104.25V-60.375M1000.42 -104.25V-60.375M1000.42 -60.375H840.5M1000.42 -60.375H1080.37M840.5 -60.375H1080.37M840.5 -60.375V-16.5M1080.37 -60.375V-16.5M1080.37 -16.5H840.5M1080.37 -16.5H1240.29M1080.37 -16.5H1000.42M1080.37 -16.5V71.25M1080.37 -16.5V27.375M840.5 -16.5V-148.125M840.5 -16.5H760.542M840.5 -16.5H1000.42M840.5 -16.5V71.25M840.5 -16.5H680.583M840.5 -16.5V27.375M280.792 -192V-16.5M280.792 -192H360.75M280.792 -192V-148.125M280.792 -16.5H360.75M280.792 -16.5V-104.25M280.792 -16.5V27.375M280.792 -16.5V159M360.75 -192V-148.125M360.75 -192H440.708M360.75 -148.125H280.792M360.75 -148.125V-104.25M360.75 -148.125H440.708M360.75 -148.125H520.667M280.792 -148.125V-104.25M360.75 -104.25H280.792M360.75 -104.25V-16.5M360.75 -104.25H520.667M360.75 -104.25H440.708M360.75 -16.5H440.708M360.75 -16.5V159M360.75 -16.5H600.625M360.75 -16.5L360.75 115.125M1400.21 1212V1036.5M1400.21 1212H1320.25M1400.21 1212V1168.12M1400.21 1036.5H1320.25M1400.21 1036.5V1124.25M1400.21 1036.5V992.625M1400.21 1036.5V861M1320.25 1212V1168.12M1320.25 1212H1240.29M1320.25 1168.12H1400.21M1320.25 1168.12V1124.25M1320.25 1168.12H1240.29M1320.25 1168.12H1160.33M1400.21 1168.12V1124.25M1320.25 1124.25H1400.21M1320.25 1124.25V1036.5M1320.25 1124.25H1160.33M1320.25 1124.25H1240.29M1320.25 1036.5H1240.29M1320.25 1036.5V861M1320.25 1036.5H1080.37M1320.25 1036.5V904.875M440.708 1212V1036.5M440.708 1212H360.75M440.708 1212V1168.12M440.708 1036.5H360.75M440.708 1036.5V1124.25M440.708 1036.5V992.625M440.708 1036.5V861M360.75 1212V1168.12M360.75 1212H280.792M360.75 1168.12H440.708M360.75 1168.12V1124.25M360.75 1168.12H280.792M360.75 1168.12H200.833M440.708 1168.12V1124.25M360.75 1124.25H440.708M360.75 1124.25V1036.5M360.75 1124.25H200.833M360.75 1124.25H280.792M360.75 1036.5H280.792M360.75 1036.5V861M360.75 1036.5H120.875M360.75 1036.5L360.75 904.875M1240.29 -192V-16.5M1240.29 -192H1320.25M1240.29 -192V-148.125M1240.29 -16.5H1320.25M1240.29 -16.5V-104.25M1240.29 -16.5V27.375M1240.29 -16.5V159M1320.25 -192V-148.125M1320.25 -192H1400.21M1320.25 -148.125H1240.29M1320.25 -148.125V-104.25M1320.25 -148.125H1400.21M1320.25 -148.125H1480.17M1240.29 -148.125V-104.25M1320.25 -104.25H1240.29M1320.25 -104.25V-16.5M1320.25 -104.25H1480.17M1320.25 -104.25H1400.21M1320.25 -16.5H1400.21M1320.25 -16.5V159M1320.25 -16.5H1560.12M1320.25 -16.5V115.125M440.708 -192V-148.125M440.708 -192H520.667M440.708 -148.125H520.667M520.667 -192V-148.125M520.667 -192H600.625M520.667 -192L520.667 -60.375M520.667 -148.125V-104.25M600.625 -192V-60.375M600.625 -192H760.542M600.625 -60.375H520.667M600.625 -60.375V-16.5M600.625 -60.375H760.542M520.667 -60.375L520.667 -104.25M520.667 -60.375H440.708M520.667 -60.375L520.667 -16.5M520.667 -104.25H440.708M440.708 -104.25V-16.5M440.708 -104.25L440.708 -60.375M440.708 -16.5H520.667M440.708 -16.5L440.708 -60.375M520.667 -16.5H600.625M600.625 -16.5H760.542M600.625 -16.5V115.125M600.625 -16.5H680.583M600.625 -16.5V27.375M1240.29 1212V1168.12M1240.29 1212H1160.33M1240.29 1168.12H1160.33M1160.33 1212V1168.12M1160.33 1212H1080.37M1160.33 1212V1080.38M1160.33 1168.12V1124.25M1080.37 1212V1080.38M1080.37 1212H920.458M1080.37 1080.38H1160.33M1080.37 1080.38V1036.5M1080.37 1080.38H920.458M1160.33 1080.38V1124.25M1160.33 1080.38H1240.29M1160.33 1080.38V1036.5M1160.33 1124.25H1240.29M1240.29 1124.25V1036.5M1240.29 1124.25V1080.38M1240.29 1036.5H1160.33M1240.29 1036.5V1080.38M1160.33 1036.5H1080.37M1080.37 1036.5H920.458M1080.37 1036.5V904.875M1080.37 1036.5H1000.42M1080.37 1036.5V992.625M280.792 1212V1168.12M280.792 1212H200.833M280.792 1168.12H200.833M200.833 1212V1168.12M200.833 1212H120.875M200.833 1212L200.833 1080.38M200.833 1168.12L200.833 1124.25M120.875 1212V1080.38M120.875 1212H-39.0416M120.875 1080.38H200.833M120.875 1080.38V1036.5M120.875 1080.38H-39.0416M200.833 1080.38L200.833 1124.25M200.833 1080.38H280.792M200.833 1080.38L200.833 1036.5M200.833 1124.25H280.792M280.792 1124.25V1036.5M280.792 1124.25L280.792 1080.38M280.792 1036.5H200.833M280.792 1036.5L280.792 1080.38M200.833 1036.5H120.875M120.875 1036.5H-39.0416M120.875 1036.5L120.875 904.875M120.875 1036.5H40.9167M120.875 1036.5L120.875 992.625M1400.21 -192V-148.125M1400.21 -192H1480.17M1400.21 -148.125H1480.17M1480.17 -192V-148.125M1480.17 -192H1560.12M1480.17 -192L1480.17 -60.375M1480.17 -148.125L1480.17 -104.25M1560.12 -192V-60.375M1560.12 -192H1720.04M1560.12 -60.375H1480.17M1560.12 -60.375V-16.5M1560.12 -60.375H1720.04M1480.17 -60.375V-104.25M1480.17 -60.375H1400.21M1480.17 -60.375L1480.17 -16.5M1480.17 -104.25H1400.21M1400.21 -104.25V-16.5M1400.21 -104.25V-60.375M1400.21 -16.5H1480.17M1400.21 -16.5V-60.375M1480.17 -16.5H1560.12M1560.12 -16.5H1720.04M1560.12 -16.5V115.125M1560.12 -16.5H1640.08M1560.12 -16.5V27.375M760.542 -192V-60.375M760.542 -192L760.542 -148.125M760.542 -60.375L760.542 -16.5M840.5 -148.125H760.542M760.542 -148.125V-16.5M920.458 1212V1080.38M920.458 1212V1168.12M920.458 1080.38V1036.5M840.5 1168.12H920.458M920.458 1168.12V1036.5M-39.0416 1212V1080.38M-39.0416 1212H-119V1168.12M-39.0416 1212L-39.0416 1168.12M-39.0416 1080.38L-39.0416 1036.5M-119 1168.12H-39.0416M-119 1168.12V1036.5M-39.0416 1168.12V1036.5M-119 1036.5H-39.0416M-119 1036.5H40.9167M-119 1036.5L-119 992.625M1720.04 -192V-60.375M1720.04 -192H1800V-148.125M1720.04 -192V-148.125M1720.04 -60.375V-16.5M1800 -148.125H1720.04M1800 -148.125V-16.5M1720.04 -148.125V-16.5M1800 -16.5H1720.04M1800 -16.5H1640.08M1800 -16.5V27.375M40.9166 -16.5V71.25M40.9166 71.25H-119M40.9166 71.25H120.875M40.9166 71.25H-39.0417M40.9166 71.25V115.125M-119 71.25H-39.0417M-119 71.25V115.125M120.875 71.25V115.125M-39.0417 71.25V115.125M-39.0417 115.125H-119M-39.0417 115.125H40.9166M-39.0417 115.125V159M-39.0417 115.125H120.875M-119 115.125V159M40.9166 115.125H120.875M120.875 115.125V159M-39.0417 159H-119M-39.0417 159H120.875M-39.0417 159V334.5M-39.0417 159H40.9166M-39.0417 159V202.875M-119 159V334.5M120.875 159H280.792M120.875 159V27.375M120.875 159H40.9166M120.875 159V202.875M120.875 159H200.833M120.875 159V334.5M1640.08 1036.5V948.75M1640.08 948.75H1800M1640.08 948.75H1560.12M1640.08 948.75H1720.04M1640.08 948.75V904.875M1800 948.75H1720.04M1800 948.75V904.875M1560.12 948.75V904.875M1720.04 948.75V904.875M1720.04 904.875H1800M1720.04 904.875H1640.08M1720.04 904.875V861M1720.04 904.875H1560.12M1800 904.875V861M1640.08 904.875H1560.12M1560.12 904.875V861M1720.04 861H1800M1720.04 861H1560.12M1720.04 861V685.5M1720.04 861H1640.08M1720.04 861V817.125M1800 861V685.5M1560.12 861H1400.21M1560.12 861V992.625M1560.12 861H1640.08M1560.12 861V817.125M1560.12 861H1480.17M1560.12 861V685.5M680.583 1036.5V948.75M680.583 948.75H840.5M680.583 948.75H600.625M680.583 948.75H760.542M680.583 948.75V904.875M840.5 948.75H760.542M840.5 948.75V904.875M600.625 948.75V904.875M760.542 948.75V904.875M760.542 904.875H840.5M760.542 904.875H680.583M760.542 904.875V861M760.542 904.875H600.625M840.5 904.875V861M840.5 904.875V992.625M840.5 904.875H920.458M680.583 904.875H600.625M600.625 904.875V861M760.542 861H840.5M760.542 861H600.625M760.542 861V685.5M760.542 861H680.583M760.542 861V817.125M840.5 861H920.458M840.5 861V685.5M600.625 861H440.708M600.625 861V992.625M600.625 861H680.583M600.625 861V817.125M600.625 861H520.667M600.625 861V685.5M1000.42 -16.5V71.25M1000.42 71.25H840.5M1000.42 71.25H1080.37M1000.42 71.25H920.458M1000.42 71.25V115.125M840.5 71.25H920.458M840.5 71.25V115.125M1080.37 71.25V115.125M920.458 71.25V115.125M920.458 115.125H840.5M920.458 115.125H1000.42M920.458 115.125V159M920.458 115.125H1080.37M840.5 115.125V159M840.5 115.125V27.375M840.5 115.125H760.542M1000.42 115.125H1080.37M1080.37 115.125V159M920.458 159H840.5M920.458 159H1080.37M920.458 159V334.5M920.458 159H1000.42M920.458 159V202.875M840.5 159H760.542M840.5 159V334.5M1080.37 159H1240.29M1080.37 159V27.375M1080.37 159H1000.42M1080.37 159V202.875M1080.37 159H1160.33M1080.37 159V334.5M280.792 27.375H120.875M280.792 27.375V159M360.75 159H280.792M360.75 159H440.708M360.75 159L360.75 115.125M360.75 159H200.833M360.75 159L360.75 334.5M360.75 159H600.625M360.75 159L360.75 202.875M1400.21 992.625H1560.12M1400.21 992.625V861M1320.25 861H1400.21M1320.25 861H1240.29M1320.25 861V904.875M1320.25 861H1480.17M1320.25 861V685.5M1320.25 861H1080.37M1320.25 861V817.125M440.708 992.625H600.625M440.708 992.625V861M360.75 861H440.708M360.75 861H280.792M360.75 861L360.75 904.875M360.75 861H520.667M360.75 861V685.5M360.75 861H120.875M360.75 861L360.75 817.125M1240.29 27.375H1080.37M1240.29 27.375V159M1320.25 159H1240.29M1320.25 159H1400.21M1320.25 159V115.125M1320.25 159H1160.33M1320.25 159V334.5M1320.25 159H1560.12M1320.25 159V202.875M600.625 115.125H360.75M600.625 115.125H520.667M600.625 115.125V159M360.75 115.125H440.708M440.708 115.125V159M440.708 115.125H520.667M440.708 159H520.667M520.667 115.125V159M520.667 159H600.625M600.625 159H760.542M600.625 159V71.25M600.625 159V202.875M600.625 159V334.5M1080.37 904.875H1320.25M1080.37 904.875H1160.33M1080.37 904.875V861M1320.25 904.875H1240.29M1240.29 904.875V861M1240.29 904.875H1160.33M1240.29 861H1160.33M1160.33 904.875V861M1160.33 861H1080.37M1080.37 861H920.458M1080.37 861V948.75M1080.37 861V817.125M1080.37 861V685.5M120.875 904.875H360.75M120.875 904.875H200.833M120.875 904.875L120.875 861M360.75 904.875H280.792M280.792 904.875V861M280.792 904.875H200.833M280.792 861H200.833M200.833 904.875V861M200.833 861H120.875M120.875 861H-39.0416M120.875 861L120.875 948.75M120.875 861L120.875 817.125M120.875 861V685.5M1560.12 115.125H1320.25M1560.12 115.125H1480.17M1560.12 115.125V159M1320.25 115.125H1400.21M1400.21 115.125V159M1400.21 115.125H1480.17M1400.21 159H1480.17M1480.17 115.125V159M1480.17 159H1560.12M1560.12 159H1720.04M1560.12 159V71.25M1560.12 159V202.875M1560.12 159V334.5M680.583 -16.5V27.375M680.583 27.375H600.625M680.583 27.375H840.5M600.625 27.375H760.542M600.625 27.375V71.25M840.5 27.375H760.542M760.542 27.375V71.25M760.542 27.375L760.542 115.125M760.542 71.25H600.625M760.542 71.25V159M760.542 115.125L760.542 159M1000.42 1036.5V992.625M1000.42 992.625H1080.37M1000.42 992.625H840.5M1080.37 992.625H920.458M1080.37 992.625V948.75M840.5 992.625H920.458M920.458 992.625V948.75M920.458 992.625V904.875M920.458 948.75H1080.37M920.458 948.75V861M920.458 904.875V861M920.458 861V685.5M40.9167 1036.5V992.625M40.9167 992.625H120.875M40.9167 992.625H-119M120.875 992.625H-39.0416M120.875 992.625V948.75M-119 992.625H-39.0416M-119 992.625L-119 904.875M-39.0416 992.625V948.75M-39.0416 992.625L-39.0416 904.875M-39.0416 948.75H120.875M-39.0416 948.75V861M-119 904.875H-39.0416M-119 904.875V861M-39.0416 904.875L-39.0416 861M-39.0416 861H-119M-39.0416 861V685.5M-119 861V685.5M1640.08 -16.5V27.375M1640.08 27.375H1560.12M1640.08 27.375H1800M1560.12 27.375H1720.04M1560.12 27.375V71.25M1800 27.375H1720.04M1800 27.375V115.125M1720.04 27.375V71.25M1720.04 27.375V115.125M1720.04 71.25H1560.12M1720.04 71.25V159M1800 115.125H1720.04M1800 115.125V159M1720.04 115.125V159M1720.04 159H1800M1720.04 159V334.5M1800 159V334.5M-39.0417 334.5H-119M-39.0417 334.5H120.875M-39.0417 334.5V290.625M-39.0417 334.5V422.25M-39.0417 334.5V510M-119 334.5V422.25M40.9166 159V202.875M40.9166 202.875H-39.0417M40.9166 202.875H120.875M40.9166 202.875V246.75M-39.0417 202.875V246.75M120.875 202.875V246.75M40.9166 246.75H-39.0417M40.9166 246.75H120.875M40.9166 246.75V290.625M-39.0417 246.75V290.625M120.875 246.75V290.625M40.9166 290.625H-39.0417M40.9166 290.625H120.875M-39.0417 290.625H120.875M120.875 290.625V334.5M120.875 334.5H200.833M120.875 334.5V510M120.875 334.5H280.792M120.875 334.5V422.25V466.125M1720.04 685.5H1800M1720.04 685.5H1560.12M1720.04 685.5V729.375M1720.04 685.5V597.75M1720.04 685.5V510M1800 685.5V597.75M1640.08 861V817.125M1640.08 817.125H1720.04M1640.08 817.125H1560.12M1640.08 817.125V773.25M1720.04 817.125V773.25M1560.12 817.125V773.25M1640.08 773.25H1720.04M1640.08 773.25H1560.12M1640.08 773.25V729.375M1720.04 773.25V729.375M1560.12 773.25V729.375M1640.08 729.375H1720.04M1640.08 729.375H1560.12M1720.04 729.375H1560.12M1560.12 729.375V685.5M1560.12 685.5H1480.17M1560.12 685.5V510M1560.12 685.5H1400.21M1560.12 685.5V597.75M760.542 685.5H840.5M760.542 685.5H600.625M760.542 685.5V729.375V773.25M760.542 685.5V597.75M760.542 685.5V510M840.5 685.5H920.458M840.5 685.5V597.75M840.5 685.5H1080.37M840.5 685.5V641.625M680.583 861V817.125M680.583 817.125H760.542M680.583 817.125H600.625M680.583 817.125V773.25M760.542 817.125V773.25M600.625 817.125V773.25M680.583 773.25H760.542M680.583 773.25H600.625M600.625 773.25V729.375V685.5M600.625 685.5H520.667M600.625 685.5V510M600.625 685.5H440.708M600.625 685.5V597.75M920.458 334.5H840.5M920.458 334.5H1080.37M920.458 334.5V290.625M840.5 334.5H600.625M1000.42 159V202.875M1000.42 202.875H920.458M1000.42 202.875H1080.37M1000.42 202.875V246.75M920.458 202.875V246.75M1080.37 202.875V246.75M1000.42 246.75H920.458M1000.42 246.75H1080.37M1000.42 246.75V290.625M920.458 246.75V290.625M1080.37 246.75V290.625M1000.42 290.625H920.458M1000.42 290.625H1080.37M920.458 290.625H1080.37M1080.37 290.625V334.5M1080.37 334.5H1160.33M1080.37 334.5H1240.29H1320.25M200.833 159V334.5M200.833 334.5H360.75M360.75 334.5H440.708M360.75 334.5V246.75M360.75 334.5H280.792M360.75 334.5L360.75 510M360.75 334.5H600.625M360.75 334.5V422.25L360.75 510M1480.17 861V685.5M1480.17 685.5H1320.25M1320.25 685.5H1240.29M1320.25 685.5V773.25M1320.25 685.5H1400.21M1320.25 685.5V510M1320.25 685.5H1080.37M1320.25 685.5V597.75M520.667 861V685.5M520.667 685.5H360.75M360.75 685.5H280.792M360.75 685.5L360.75 773.25M360.75 685.5H440.708M360.75 685.5L360.75 510M360.75 685.5H120.875M360.75 685.5L360.75 597.75M1160.33 159V334.5M1160.33 334.5H1320.25M1320.25 334.5H1400.21V246.75M1320.25 334.5V246.75M1320.25 334.5V510M1320.25 334.5V422.25M600.625 202.875H360.75M600.625 202.875V246.75M360.75 202.875V246.75M600.625 246.75H360.75M600.625 246.75H520.667M600.625 246.75V290.625M360.75 246.75H440.708M440.708 246.75V334.5M440.708 246.75H520.667M440.708 334.5H520.667M520.667 246.75V334.5M520.667 246.75L520.667 290.625M520.667 334.5H600.625M520.667 334.5L520.667 290.625M600.625 290.625H520.667M600.625 290.625V334.5M1080.37 817.125H1320.25M1080.37 817.125V773.25M1320.25 817.125V773.25M1080.37 773.25H1320.25M1080.37 773.25H1160.33M1080.37 773.25V729.375M1320.25 773.25H1240.29M1240.29 773.25V685.5M1240.29 773.25H1160.33M1240.29 685.5H1160.33M1160.33 773.25V685.5M1160.33 773.25V729.375M1160.33 685.5H1080.37M1160.33 685.5V729.375M1080.37 729.375H1160.33M1080.37 729.375V685.5M1080.37 685.5H920.458M1080.37 685.5V597.75M1080.37 685.5V641.625M120.875 817.125H360.75M120.875 817.125V773.25M360.75 817.125V773.25M120.875 773.25H360.75M120.875 773.25H200.833M120.875 773.25L120.875 729.375M360.75 773.25H280.792M280.792 773.25V685.5M280.792 773.25H200.833M280.792 685.5H200.833M200.833 773.25V685.5M200.833 773.25L200.833 729.375M200.833 685.5H120.875M200.833 685.5L200.833 729.375M120.875 729.375H200.833M120.875 729.375V685.5M120.875 685.5H-39.0416M120.875 685.5L120.875 597.75M120.875 685.5H-119M120.875 685.5L120.875 641.625M1560.12 202.875H1320.25M1560.12 202.875V246.75M1320.25 202.875V246.75M1560.12 246.75H1320.25M1560.12 246.75H1480.17M1560.12 246.75V290.625M1320.25 246.75H1400.21M1400.21 246.75H1480.17M1480.17 246.75V334.5M1480.17 246.75L1480.17 290.625M1480.17 334.5H1560.12M1480.17 334.5L1480.17 290.625M1560.12 290.625H1480.17M1560.12 290.625V334.5M1560.12 334.5H1720.04M1560.12 334.5V422.25M1560.12 334.5H1800M1560.12 334.5V378.375M-39.0416 685.5H-119M-119 685.5L-119 641.625M1720.04 334.5H1800M1800 334.5V378.375M-39.0417 422.25H-119M-39.0417 422.25V466.125M-119 422.25V466.125M120.875 510H-39.0417M120.875 510H280.792M120.875 510V466.125M120.875 510V597.75M120.875 510H360.75M120.875 510H40.9167M120.875 510V641.625M-39.0417 510V466.125M-39.0417 510H-119M-39.0417 510L-39.0417 641.625M-39.0417 510H40.9167M-39.0417 510L-39.0416 553.875M-39.0417 466.125H-119M-119 466.125V510M-119 510L-119 553.875M1720.04 597.75H1800M1720.04 597.75V553.875M1800 597.75V553.875M1560.12 510H1720.04M1560.12 510H1400.21M1560.12 510V553.875M1560.12 510V422.25M1560.12 510H1320.25M1560.12 510H1640.08M1560.12 510V378.375M1720.04 510V553.875M1720.04 510H1800M1720.04 510L1720.04 378.375M1720.04 510H1640.08M1720.04 510V466.125M1720.04 553.875H1800M1800 553.875V510M1800 510V466.125M760.542 597.75H840.5M760.542 597.75V553.875M840.5 597.75V553.875M840.5 597.75V641.625M840.5 597.75H920.458M600.625 510H760.542M600.625 510H440.708M600.625 510V553.875M600.625 510H360.75M600.625 510H680.583H760.542M760.542 510V553.875M760.542 510H840.5M760.542 553.875H840.5M840.5 553.875V510M840.5 553.875H920.458M840.5 510H920.458M1080.37 510H920.458M1080.37 510H1240.29H1320.25M1080.37 510V597.75M1080.37 510H1320.25M1080.37 510H1000.42M1080.37 510V641.625M920.458 510V641.625M920.458 510H1000.42M920.458 510L920.458 553.875M280.792 334.5V422.25V466.125M280.792 334.5V510M360.75 510H280.792M360.75 510H440.708M360.75 510L360.75 597.75M280.792 510V466.125M120.875 466.125H200.833H280.792M120.875 466.125H280.792M1400.21 685.5V597.75M1400.21 685.5V510M1400.21 597.75H1560.12M1400.21 597.75H1480.17M1400.21 597.75V553.875M1560.12 597.75H1480.17M1560.12 597.75V553.875M1320.25 510H1400.21M1320.25 510V597.75M1320.25 510V422.25M1400.21 510V553.875M1480.17 597.75V553.875M1480.17 553.875H1560.12M1480.17 553.875H1400.21M1560.12 553.875H1400.21M440.708 685.5V597.75M440.708 685.5V510M440.708 597.75H600.625M440.708 597.75H520.667M440.708 597.75V553.875M600.625 597.75H520.667M600.625 597.75V553.875M440.708 510V553.875M520.667 597.75V553.875M520.667 553.875H600.625M520.667 553.875H440.708M600.625 553.875H440.708M1080.37 597.75H1320.25M120.875 597.75H360.75M1560.12 422.25H1320.25M840.5 641.625H1080.37M840.5 641.625H920.458M1080.37 641.625H1000.42M1000.42 641.625V510M1000.42 641.625H920.458M920.458 641.625L920.458 597.75M920.458 597.75V553.875M-119 641.625H120.875M-119 641.625H-39.0417M-119 641.625L-119 597.75M120.875 641.625H40.9167M40.9167 641.625V510M40.9167 641.625H-39.0417M-39.0417 641.625L-39.0416 597.75M-119 597.75H-39.0416M-119 597.75V553.875M-39.0416 597.75V553.875M-119 553.875H-39.0416M1800 378.375H1560.12M1800 378.375H1720.04M1800 378.375V422.25M1560.12 378.375H1640.08M1640.08 378.375V510M1640.08 378.375H1720.04M1720.04 378.375L1720.04 422.25M1800 422.25H1720.04M1800 422.25V466.125M1720.04 422.25V466.125M1800 466.125H1720.04" stroke="url(#paint0_radial)" stroke-width="2" stroke-dasharray="2 5"/>
</g>
<defs>
<radialGradient id="paint0_radial" cx="0" cy="0" r="1" gradientUnits="userSpaceOnUse" gradientTransform="translate(781 392) rotate(88.8395) scale(543.111 759.305)">
<stop stop-color="#232337"/>
<stop offset="0.664151" stop-color="#232337" stop-opacity="0.5"/>
<stop offset="1" stop-color="#232337" stop-opacity="0"/>
</radialGradient>
</defs>
</svg>
